<mxfile host="Electron" modified="2023-12-27T09:37:16.820Z" agent="Mozilla/5.0 (Windows NT 10.0; Win64; x64) AppleWebKit/537.36 (KHTML, like Gecko) draw.io/21.6.5 Chrome/114.0.5735.243 Electron/25.3.1 Safari/537.36" etag="P6uf574227_LL5b0fXLB" version="21.6.5" type="device">
  <diagram name="Page-1" id="Y8TIJVk2f9xIt1qIkr0o">
    <mxGraphModel dx="1036" dy="606" grid="1" gridSize="10" guides="1" tooltips="1" connect="1" arrows="1" fold="1" page="1" pageScale="1" pageWidth="850" pageHeight="1100" math="0" shadow="0">
      <root>
        <mxCell id="0" />
        <mxCell id="1" parent="0" />
        <mxCell id="t4MtLqwM7lFzrKXpGpVS-6" style="edgeStyle=orthogonalEdgeStyle;rounded=0;orthogonalLoop=1;jettySize=auto;html=1;exitX=0;exitY=0.5;exitDx=0;exitDy=0;" edge="1" parent="1" source="t4MtLqwM7lFzrKXpGpVS-1" target="t4MtLqwM7lFzrKXpGpVS-2">
          <mxGeometry relative="1" as="geometry" />
        </mxCell>
        <mxCell id="t4MtLqwM7lFzrKXpGpVS-7" style="edgeStyle=orthogonalEdgeStyle;rounded=0;orthogonalLoop=1;jettySize=auto;html=1;exitX=0.5;exitY=1;exitDx=0;exitDy=0;entryX=0.5;entryY=0;entryDx=0;entryDy=0;" edge="1" parent="1" source="t4MtLqwM7lFzrKXpGpVS-1" target="t4MtLqwM7lFzrKXpGpVS-3">
          <mxGeometry relative="1" as="geometry" />
        </mxCell>
        <mxCell id="t4MtLqwM7lFzrKXpGpVS-1" value="ServiceA/ServiceB" style="rounded=0;whiteSpace=wrap;html=1;" vertex="1" parent="1">
          <mxGeometry x="340" y="100" width="120" height="60" as="geometry" />
        </mxCell>
        <mxCell id="t4MtLqwM7lFzrKXpGpVS-2" value="Tempo" style="rounded=0;whiteSpace=wrap;html=1;" vertex="1" parent="1">
          <mxGeometry x="160" y="260" width="120" height="60" as="geometry" />
        </mxCell>
        <mxCell id="t4MtLqwM7lFzrKXpGpVS-3" value="Loki" style="rounded=0;whiteSpace=wrap;html=1;" vertex="1" parent="1">
          <mxGeometry x="340" y="260" width="120" height="60" as="geometry" />
        </mxCell>
        <mxCell id="t4MtLqwM7lFzrKXpGpVS-8" style="edgeStyle=orthogonalEdgeStyle;rounded=0;orthogonalLoop=1;jettySize=auto;html=1;exitX=0.5;exitY=0;exitDx=0;exitDy=0;entryX=1;entryY=0.5;entryDx=0;entryDy=0;" edge="1" parent="1" source="t4MtLqwM7lFzrKXpGpVS-4" target="t4MtLqwM7lFzrKXpGpVS-1">
          <mxGeometry relative="1" as="geometry" />
        </mxCell>
        <mxCell id="t4MtLqwM7lFzrKXpGpVS-4" value="Prometheus" style="rounded=0;whiteSpace=wrap;html=1;" vertex="1" parent="1">
          <mxGeometry x="510" y="260" width="120" height="60" as="geometry" />
        </mxCell>
        <mxCell id="t4MtLqwM7lFzrKXpGpVS-10" style="edgeStyle=orthogonalEdgeStyle;rounded=0;orthogonalLoop=1;jettySize=auto;html=1;exitX=0.75;exitY=0;exitDx=0;exitDy=0;entryX=0.5;entryY=1;entryDx=0;entryDy=0;" edge="1" parent="1" source="t4MtLqwM7lFzrKXpGpVS-5" target="t4MtLqwM7lFzrKXpGpVS-4">
          <mxGeometry relative="1" as="geometry" />
        </mxCell>
        <mxCell id="t4MtLqwM7lFzrKXpGpVS-11" style="edgeStyle=orthogonalEdgeStyle;rounded=0;orthogonalLoop=1;jettySize=auto;html=1;exitX=0.5;exitY=0;exitDx=0;exitDy=0;entryX=0.5;entryY=1;entryDx=0;entryDy=0;" edge="1" parent="1" source="t4MtLqwM7lFzrKXpGpVS-5" target="t4MtLqwM7lFzrKXpGpVS-3">
          <mxGeometry relative="1" as="geometry" />
        </mxCell>
        <mxCell id="t4MtLqwM7lFzrKXpGpVS-17" style="edgeStyle=orthogonalEdgeStyle;rounded=0;orthogonalLoop=1;jettySize=auto;html=1;exitX=0.25;exitY=0;exitDx=0;exitDy=0;entryX=0.5;entryY=1;entryDx=0;entryDy=0;" edge="1" parent="1" source="t4MtLqwM7lFzrKXpGpVS-5" target="t4MtLqwM7lFzrKXpGpVS-2">
          <mxGeometry relative="1" as="geometry" />
        </mxCell>
        <mxCell id="t4MtLqwM7lFzrKXpGpVS-5" value="Grafana" style="rounded=0;whiteSpace=wrap;html=1;" vertex="1" parent="1">
          <mxGeometry x="277.5" y="450" width="245" height="60" as="geometry" />
        </mxCell>
        <mxCell id="t4MtLqwM7lFzrKXpGpVS-16" style="edgeStyle=orthogonalEdgeStyle;rounded=0;orthogonalLoop=1;jettySize=auto;html=1;exitX=0.5;exitY=0;exitDx=0;exitDy=0;exitPerimeter=0;" edge="1" parent="1" source="t4MtLqwM7lFzrKXpGpVS-13" target="t4MtLqwM7lFzrKXpGpVS-5">
          <mxGeometry relative="1" as="geometry" />
        </mxCell>
        <mxCell id="t4MtLqwM7lFzrKXpGpVS-13" value="Engineer" style="shape=umlActor;verticalLabelPosition=bottom;verticalAlign=top;html=1;outlineConnect=0;" vertex="1" parent="1">
          <mxGeometry x="385" y="550" width="30" height="60" as="geometry" />
        </mxCell>
      </root>
    </mxGraphModel>
  </diagram>
</mxfile>
